<?xml version="1.0" encoding="iso-8859-1"?>
<!-- Uploaded to: SVG Repo, www.svgrepo.com, Generator: SVG Repo Mixer Tools -->
<svg height="800px" width="800px" version="1.1" id="Layer_1" xmlns="http://www.w3.org/2000/svg" xmlns:xlink="http://www.w3.org/1999/xlink" 
	 viewBox="0 0 325.68 325.68" xml:space="preserve">
<g>
	<path style="fill:#51B3DA;" d="M7.5,71.58V254.1h310.68V71.58H7.5z M288.18,202.6c-11.88,0-21.5,9.62-21.5,21.5H59
		c0-11.88-9.62-21.5-21.5-21.5v-79.52c11.88,0,21.5-9.62,21.5-21.5h207.68c0,11.88,9.62,21.5,21.5,21.5V202.6z"/>
	<path style="fill:#CBE5C0;" d="M288.18,123.08v79.52c-11.88,0-21.5,9.62-21.5,21.5H59c0-11.88-9.62-21.5-21.5-21.5v-79.52
		c11.88,0,21.5-9.62,21.5-21.5h207.68C266.68,113.46,276.3,123.08,288.18,123.08z"/>
	<path style="fill:#CBE5C0;" d="M288.18,123.08v79.52c-11.88,0-21.5,9.62-21.5,21.5H59c0-11.88-9.62-21.5-21.5-21.5v-79.52
		c11.88,0,21.5-9.62,21.5-21.5h207.68C266.68,113.46,276.3,123.08,288.18,123.08z"/>
	<circle style="fill:#FFDA79;" cx="162.84" cy="162.84" r="39.667"/>
	<g>
		<path style="fill:#13829B;" d="M318.18,64.08H7.5c-4.142,0-7.5,3.357-7.5,7.5V254.1c0,4.143,3.358,7.5,7.5,7.5h310.68
			c4.142,0,7.5-3.358,7.5-7.5V71.58C325.68,67.437,322.322,64.08,318.18,64.08z M310.68,246.6H15V79.08h295.68V246.6z"/>
		<path style="fill:#13829B;" d="M37.5,210.1c7.72,0,14,6.28,14,14c0,4.143,3.358,7.5,7.5,7.5h207.68c4.142,0,7.5-3.357,7.5-7.5
			c0-7.72,6.28-14,14-14c4.142,0,7.5-3.357,7.5-7.5v-79.52c0-4.143-3.358-7.5-7.5-7.5c-7.72,0-14-6.28-14-14
			c0-4.143-3.358-7.5-7.5-7.5H59c-4.142,0-7.5,3.357-7.5,7.5c0,7.72-6.28,14-14,14c-4.142,0-7.5,3.357-7.5,7.5v79.52
			C30,206.742,33.358,210.1,37.5,210.1z M45,129.597c9.975-2.672,17.845-10.542,20.517-20.517h194.646
			c2.672,9.975,10.542,17.845,20.517,20.517v66.486c-9.975,2.672-17.845,10.542-20.517,20.517H65.517
			c-2.672-9.975-10.542-17.845-20.517-20.517V129.597z"/>
		<path style="fill:#13829B;" d="M162.84,210.007c26.008,0,47.166-21.159,47.166-47.167s-21.159-47.167-47.166-47.167
			c-26.008,0-47.167,21.159-47.167,47.167S136.832,210.007,162.84,210.007z M162.84,130.673c17.737,0,32.166,14.43,32.166,32.167
			s-14.43,32.167-32.166,32.167c-17.737,0-32.167-14.43-32.167-32.167S145.103,130.673,162.84,130.673z"/>
		<path style="fill:#13829B;" d="M148.084,179.085c3.947,2.782,8.413,4.529,13.266,5.047v4.013c0,3.626,5.63,3.735,5.63,0v-3.883
			c8.218-0.776,13.784-5.501,13.784-12.619c0-6.924-4.206-10.871-14.042-13.331v-12.425c2.2,0.518,4.4,1.489,6.665,2.848
			c4.255,2.555,7.991-3.625,3.624-6.083c-2.977-1.876-6.212-3.106-10.03-3.559v-1.424c0-3.737-5.63-3.628-5.63,0v1.358
			c-8.089,0.647-13.59,5.436-13.59,12.36c0,7.313,4.4,10.872,13.849,13.331v12.748c-3.559-0.648-6.536-2.136-9.578-4.336
			c-2.155-1.676-5.695-0.284-5.695,2.848C146.337,177.338,146.984,178.373,148.084,179.085z M166.722,165.948
			c4.983,1.553,6.406,3.3,6.406,6.148c0,3.106-2.265,5.177-6.406,5.63V165.948z M155.397,150.934c0-2.847,2.071-5.048,6.212-5.436
			v11.454C156.626,155.335,155.397,153.652,155.397,150.934z"/>
		<path style="fill:#13829B;" d="M93.173,170.34c4.142,0,7.5-3.357,7.5-7.5c0-4.143-3.358-7.5-7.5-7.5h-30.34
			c-4.142,0-7.5,3.357-7.5,7.5c0,4.143,3.358,7.5,7.5,7.5H93.173z"/>
		<path style="fill:#13829B;" d="M232.506,170.34h30.34c4.142,0,7.5-3.357,7.5-7.5c0-4.143-3.358-7.5-7.5-7.5h-30.34
			c-4.142,0-7.5,3.357-7.5,7.5C225.006,166.982,228.364,170.34,232.506,170.34z"/>
	</g>
</g>
</svg>